<svg width="1280" height="640" viewBox="0 0 1280 640" fill="none" xmlns="http://www.w3.org/2000/svg">
  <defs>
    <linearGradient id="bg" x1="120" y1="80" x2="1160" y2="560" gradientUnits="userSpaceOnUse">
      <stop stop-color="#0F172A"/>
      <stop offset="0.55" stop-color="#111827"/>
      <stop offset="1" stop-color="#1F2937"/>
    </linearGradient>
    <linearGradient id="accent" x1="220" y1="140" x2="980" y2="520" gradientUnits="userSpaceOnUse">
      <stop stop-color="#A78BFA"/>
      <stop offset="0.5" stop-color="#60A5FA"/>
      <stop offset="1" stop-color="#34D399"/>
    </linearGradient>
    <linearGradient id="card" x1="0" y1="0" x2="1" y2="1">
      <stop stop-color="#FFFFFF" stop-opacity="0.14"/>
      <stop offset="1" stop-color="#FFFFFF" stop-opacity="0.05"/>
    </linearGradient>
    <filter id="blurGlow" x="0" y="0" width="1280" height="640" filterUnits="userSpaceOnUse" color-interpolation-filters="sRGB">
      <feGaussianBlur stdDeviation="36"/>
    </filter>
  </defs>

  <rect width="1280" height="640" rx="28" fill="url(#bg)"/>

  <g opacity="0.22" filter="url(#blurGlow)">
    <circle cx="235" cy="138" r="96" fill="#8B5CF6"/>
    <circle cx="1070" cy="156" r="86" fill="#38BDF8"/>
    <circle cx="1010" cy="524" r="110" fill="#34D399"/>
  </g>

  <g opacity="0.14" stroke="#E5E7EB">
    <circle cx="902" cy="324" r="154"/>
    <circle cx="902" cy="324" r="118"/>
    <circle cx="902" cy="324" r="82"/>
    <circle cx="902" cy="324" r="38"/>
    <line x1="748" y1="324" x2="1056" y2="324"/>
    <line x1="902" y1="170" x2="902" y2="478"/>
    <line x1="793.1" y1="215.1" x2="1010.9" y2="432.9"/>
    <line x1="793.1" y1="432.9" x2="1010.9" y2="215.1"/>
  </g>

  <g opacity="0.92">
    <path d="M894 170C851 191 816 228 799 275C781 323 785 377 812 421" stroke="url(#accent)" stroke-width="5" stroke-linecap="round"/>
    <path d="M924 170C967 191 1002 228 1019 275C1037 323 1033 377 1006 421" stroke="url(#accent)" stroke-width="5" stroke-linecap="round"/>
    <path d="M774 325C797 303 827 287 859 279" stroke="#C4B5FD" stroke-width="4" stroke-linecap="round"/>
    <path d="M1030 325C1007 303 977 287 945 279" stroke="#93C5FD" stroke-width="4" stroke-linecap="round"/>
    <circle cx="902" cy="324" r="11" fill="#F8FAFC"/>
    <circle cx="839" cy="246" r="8" fill="#C4B5FD"/>
    <circle cx="968" cy="238" r="8" fill="#93C5FD"/>
    <circle cx="1013" cy="355" r="8" fill="#6EE7B7"/>
    <circle cx="821" cy="392" r="8" fill="#A78BFA"/>
    <path d="M900 216L906 227L918 229L909 237L911 249L900 243L889 249L891 237L882 229L894 227L900 216Z" fill="#F8FAFC"/>
    <path d="M1007 297L1011 304L1019 305L1013 311L1014 319L1007 315L1000 319L1001 311L995 305L1003 304L1007 297Z" fill="#F8FAFC" opacity="0.95"/>
    <path d="M831 331L835 338L843 339L837 345L838 353L831 349L824 353L825 345L819 339L827 338L831 331Z" fill="#F8FAFC" opacity="0.95"/>
  </g>

  <g>
    <rect x="64" y="66" width="540" height="508" rx="24" fill="url(#card)" stroke="#FFFFFF" stroke-opacity="0.12"/>
    <text x="108" y="156" fill="#F8FAFC" font-family="Inter,Segoe UI,Arial,sans-serif" font-size="54" font-weight="700">Astrology Chart API</text>
    <text x="108" y="204" fill="#CBD5E1" font-family="Inter,Segoe UI,Arial,sans-serif" font-size="24">Structured astrological chart calculation with FastAPI</text>
    <text x="108" y="238" fill="#CBD5E1" font-family="Inter,Segoe UI,Arial,sans-serif" font-size="24">Flatlib, Swiss Ephemeris and Docker</text>

    <g>
      <rect x="108" y="286" width="188" height="40" rx="20" fill="#7C3AED" fill-opacity="0.22" stroke="#C4B5FD"/>
      <text x="132" y="312" fill="#EDE9FE" font-family="Inter,Segoe UI,Arial,sans-serif" font-size="18" font-weight="600">FastAPI service</text>
      <rect x="312" y="286" width="196" height="40" rx="20" fill="#0369A1" fill-opacity="0.22" stroke="#7DD3FC"/>
      <text x="336" y="312" fill="#E0F2FE" font-family="Inter,Segoe UI,Arial,sans-serif" font-size="18" font-weight="600">Structured JSON</text>
    </g>

    <g>
      <text x="108" y="372" fill="#A5F3FC" font-family="ui-monospace,SFMono-Regular,Menlo,monospace" font-size="20">POST /chart</text>
      <text x="108" y="412" fill="#E5E7EB" font-family="ui-monospace,SFMono-Regular,Menlo,monospace" font-size="18">{</text>
      <text x="132" y="442" fill="#E5E7EB" font-family="ui-monospace,SFMono-Regular,Menlo,monospace" font-size="18">&quot;birth_date&quot;: &quot;1990-08-15&quot;,</text>
      <text x="132" y="472" fill="#E5E7EB" font-family="ui-monospace,SFMono-Regular,Menlo,monospace" font-size="18">&quot;birth_city&quot;: &quot;São Paulo, Brasil&quot;,</text>
      <text x="132" y="502" fill="#E5E7EB" font-family="ui-monospace,SFMono-Regular,Menlo,monospace" font-size="18">&quot;house_system&quot;: &quot;equal&quot;</text>
      <text x="108" y="532" fill="#E5E7EB" font-family="ui-monospace,SFMono-Regular,Menlo,monospace" font-size="18">}</text>
    </g>
  </g>

  <g opacity="0.8">
    <rect x="752" y="505" width="360" height="58" rx="18" fill="#FFFFFF" fill-opacity="0.08" stroke="#FFFFFF" stroke-opacity="0.12"/>
    <text x="780" y="541" fill="#E2E8F0" font-family="Inter,Segoe UI,Arial,sans-serif" font-size="21" font-weight="600">Birth data → Chart objects → API response</text>
  </g>
</svg>
